# xmcd
# 
# Track frame offsets:
#     150
#     21969
#     39929
#     55662
#     70806
#     86494
#     100755
#     127089
#     140716
#     164455
#     179234
#     192528
#     213835
#     227123
# 
# Disc length: 3290
# 
# Revision: 1
# Processed by: cddbd v1.5.2PL0 Copyright (c) Steve Scherf et al.
# Submitted via: fre:ac v1.1beta1pre3
# 
DISCID=cb0cd80e
DTITLE=Συλλογικός δίσκος - Μαυροθάλασσα-Τραγούδια Πόντου
DYEAR=1999
DGENRE=Παραδ. Πόντου
TTITLE0=Βασιλειάδης Αχιλλέας - Μαυροθάλασσα [ρυθ. ομάλ Μαύρης Θάλασσας, λ. Κ. Σιαμίδης, Χ. Αντωνιάδη]
TTITLE1=Βασιλειάδης Αχιλλέας - Παρακάθ' [μονό τικ Σουρμένων, διασκ. Παροικίας Σουρ., Χ. Αντωνιάδη]
TTITLE2=Κουρτίδης Γιάννης - Βάσταξον καρδιά μ' [διπάτ Τραπεζούντος, παρ/κό, κρουστά Fuat Saka]
TTITLE3=Βασιλειάδης Αχιλλέας-Κουρτίδης Γ. - Ο κουμπάρο μ' [τικ Τραπεζούντος, Χ. Αντωνιάδη, κρουστά Fuat Saka]
TTITLE4=Κουρτίδης Γιάννης - Η χαρά [τικ Σουρμένων, Χ. Αντωνιάδη]
TTITLE5=Βασιλειάδης Αχιλλέας-Κουρτίδης Γ. - Μη κλαίνιεις την κεμεντζέ μ' [ομάλ Σουρμένων, Χ. Αντωνιάδη]
TTITLE6=Βασιλειάδης Αχιλλέας-Κουρτίδης Γ. - Την πατρίδα μ' έχασα [επιτραπέζιο Σουρμένων, Χ. Αντωνιάδη]
TTITLE7=Βασιλειάδης Αχιλλέας - Δυό κορτσόπα έμορφα [ομάλ Νικόπολης-Αργυρρούπολης, παρ/κό]
TTITLE8=Κουρτίδης Γιάννης - Σπεντάμ' [διπάτ Ματσούκας, Χ. Αντωνιάδη]
TTITLE9=Άνευ ερμηνευτού - Σαλλάμα [χορός Σουρμένων, ορχ. συμβ. το κύμα, φλ. Γ. Σιαμίδης, κρ. Fuat Saka]
TTITLE10=Πολυχρονίδης Γ. - Παρχάρ' [μονόν τικ Τόγιας, παρ/κό, κρουστά Fuat Saka]
TTITLE11=Στεφανίδης Γ. - Τσαμπασίν [διπάτ Κοτυώρων, παρ/κό, κρουστά Fuat Saka]
TTITLE12=Κουρτίδης Γιάννης-Βασιλειάδης Αχ. - Τ' αμαρτίας σης πολλά [τικ Τραπεζούντος, Χ. Αντωνιάδη, κρουστά Fuat Saka]
TTITLE13=Βασιλειάδης Αχιλλέας - Έναν νύφεν εφίλεσα [τικ Γαλίαινας, παρ/κό, κρουστά Fuat Saka]
EXTD=
EXTT0=
EXTT1=
EXTT2=
EXTT3=
EXTT4=
EXTT5=
EXTT6=
EXTT7=
EXTT8=
EXTT9=
EXTT10=
EXTT11=
EXTT12=
EXTT13=
PLAYORDER=
